STARTFONT 2.1
FONT -Bitstream-Terminal-Medium-R-Narrow--50-360-100-100-C-180-DEC-DECtech
SIZE 36 100 100
FONTBOUNDINGBOX 18 50 0 -10

STARTPROPERTIES 28
CHARSET_REGISTRY "DEC"
CHARSET_ENCODING "DECtech"
CAP_HEIGHT 30
X_HEIGHT 24
AVERAGE_WIDTH 180
AVG_CAPITAL_WIDTH 180
AVG_LOWERCASE_WIDTH 180
FIGURE_WIDTH 18
SPACING "C"
FONTNAME_REGISTRY ""
FAMILY_NAME "Terminal"
FOUNDRY "Bitstream"
WEIGHT_NAME "Medium"
SETWIDTH_NAME "Narrow"
SLANT "R"
ADD_STYLE_NAME ""
PIXEL_SIZE 50
POINT_SIZE 360
RESOLUTION_X 100
RESOLUTION_Y 100
CHARSET_COLLECTIONS "DEC-DECtech"
FULL_NAME "Terminal Narrow"
COPYRIGHT "Copyright (c) 1988 Bitstream, Inc., Copyright 1991 Digital Equipment Corp."
WEIGHT 10
QUAD_WIDTH 14
DEFAULT_CHAR 159
FONT_DESCENT 10
FONT_ASCENT 40
ENDPROPERTIES

CHARS 181

STARTCHAR space
ENCODING 32
SWIDTH 720 0
DWIDTH 18 0
BBX 1 1 0 0
BITMAP
00
ENDCHAR

STARTCHAR exclam
ENCODING 33
SWIDTH 720 0
DWIDTH 18 0
BBX 6 30 6 0
BITMAP
30
30
30
30
30
30
30
30
30
30
30
30
30
30
30
30
30
30
00
00
00
00
00
00
30
30
FC
FC
30
30
ENDCHAR

STARTCHAR quotedbl
ENCODING 34
SWIDTH 720 0
DWIDTH 18 0
BBX 7 12 5 20
BITMAP
C6
C6
C6
C6
C6
C6
C6
C6
C6
C6
C6
C6
ENDCHAR

STARTCHAR numbersign
ENCODING 35
SWIDTH 720 0
DWIDTH 18 0
BBX 11 32 3 -2
BITMAP
3180
3180
3180
3180
3180
3180
3180
3180
3180
3180
FFE0
FFE0
3180
3180
3180
3180
3180
3180
3180
3180
FFE0
FFE0
3180
3180
3180
3180
3180
3180
3180
3180
3180
3180
ENDCHAR

STARTCHAR dollar
ENCODING 36
SWIDTH 720 0
DWIDTH 18 0
BBX 12 42 3 -6
BITMAP
0600
0600
0600
0600
0600
0600
0600
0600
3FD0
3FD0
7070
7070
C030
C030
C030
C030
7800
7800
3F00
3F00
07E0
07E0
00E0
00E0
C030
C030
C030
C030
E030
E030
F8E0
F8E0
CFC0
CFC0
0600
0600
0600
0600
0600
0600
0600
0600
ENDCHAR

STARTCHAR percent
ENCODING 37
SWIDTH 720 0
DWIDTH 18 0
BBX 14 30 2 0
BITMAP
7E00
7E00
C300
C300
C300
C300
C300
C300
C31C
C31C
7E70
7E70
01C0
01C0
0380
0380
0E00
0E00
39F8
39F8
E30C
E30C
030C
030C
030C
030C
030C
030C
01F8
01F8
ENDCHAR

STARTCHAR ampersand
ENCODING 38
SWIDTH 720 0
DWIDTH 18 0
BBX 12 30 3 0
BITMAP
0FC0
0FC0
38C0
38C0
30C0
30C0
3000
3000
3000
3000
1800
1800
0C00
0C00
3C30
3C30
7630
7630
C320
C320
C360
C360
C1C0
C1C0
C0C0
C0C0
73F0
73F0
3E30
3E30
ENDCHAR

STARTCHAR quoteright
ENCODING 39
SWIDTH 720 0
DWIDTH 18 0
BBX 8 12 5 22
BITMAP
07
07
0E
0E
1C
1C
38
38
60
60
C0
C0
ENDCHAR

STARTCHAR parenleft
ENCODING 40
SWIDTH 720 0
DWIDTH 18 0
BBX 7 44 6 -8
BITMAP
06
06
0C
0C
18
18
30
30
30
30
60
60
60
60
C0
C0
C0
C0
C0
C0
C0
C0
C0
C0
C0
C0
C0
C0
C0
C0
60
60
60
60
30
30
30
30
18
18
0C
0C
06
06
ENDCHAR

STARTCHAR parenright
ENCODING 41
SWIDTH 720 0
DWIDTH 18 0
BBX 7 44 6 -8
BITMAP
C0
C0
60
60
30
30
18
18
18
18
0C
0C
0C
0C
06
06
06
06
06
06
06
06
06
06
06
06
06
06
06
06
0C
0C
0C
0C
18
18
18
18
30
30
60
60
C0
C0
ENDCHAR

STARTCHAR asterisk
ENCODING 42
SWIDTH 720 0
DWIDTH 18 0
BBX 10 22 4 8
BITMAP
0C00
0C00
0C00
0C00
C4C0
C4C0
CCC0
CCC0
3300
3300
3F00
3F00
0C00
0C00
3300
3300
3300
3300
C0C0
C0C0
C0C0
C0C0
ENDCHAR

STARTCHAR plus
ENCODING 43
SWIDTH 720 0
DWIDTH 18 0
BBX 14 22 2 4
BITMAP
0300
0300
0300
0300
0300
0300
0300
0300
0300
0300
FFFC
FFFC
0300
0300
0300
0300
0300
0300
0300
0300
0300
0300
ENDCHAR

STARTCHAR comma
ENCODING 44
SWIDTH 720 0
DWIDTH 18 0
BBX 7 12 5 -6
BITMAP
1E
1E
1C
1C
38
38
30
30
60
60
C0
C0
ENDCHAR

STARTCHAR minus
ENCODING 45
SWIDTH 720 0
DWIDTH 18 0
BBX 12 2 3 14
BITMAP
FFF0
FFF0
ENDCHAR

STARTCHAR period
ENCODING 46
SWIDTH 720 0
DWIDTH 18 0
BBX 6 6 6 0
BITMAP
30
30
FC
FC
30
30
ENDCHAR

STARTCHAR slash
ENCODING 47
SWIDTH 720 0
DWIDTH 18 0
BBX 10 38 4 -4
BITMAP
00C0
00C0
00C0
00C0
0180
0180
0180
0180
0300
0300
0300
0300
0600
0600
0600
0600
0C00
0C00
0C00
0C00
0C00
0C00
1800
1800
1800
1800
3000
3000
3000
3000
6000
6000
6000
6000
C000
C000
C000
C000
ENDCHAR

STARTCHAR zero
ENCODING 48
SWIDTH 720 0
DWIDTH 18 0
BBX 12 30 3 0
BITMAP
1F80
1F80
39C0
39C0
6060
6060
6060
6060
C030
C030
C030
C030
C030
C030
C030
C030
C030
C030
C030
C030
C030
C030
6060
6060
6060
6060
39C0
39C0
1F80
1F80
ENDCHAR

STARTCHAR one
ENCODING 49
SWIDTH 720 0
DWIDTH 18 0
BBX 11 30 3 0
BITMAP
0600
0600
0E00
0E00
3600
3600
C600
C600
0600
0600
0600
0600
0600
0600
0600
0600
0600
0600
0600
0600
0600
0600
0600
0600
0600
0600
0600
0600
7FE0
7FE0
ENDCHAR

STARTCHAR two
ENCODING 50
SWIDTH 720 0
DWIDTH 18 0
BBX 11 30 3 0
BITMAP
3F80
3F80
60C0
60C0
C060
C060
C060
C060
00C0
00C0
00C0
00C0
0180
0180
0300
0300
0600
0600
0400
0400
0C00
0C00
1800
1800
3060
3060
6060
6060
FFE0
FFE0
ENDCHAR

STARTCHAR three
ENCODING 51
SWIDTH 720 0
DWIDTH 18 0
BBX 11 30 3 0
BITMAP
3F00
3F00
C180
C180
80C0
80C0
00C0
00C0
00C0
00C0
0180
0180
1F00
1F00
0380
0380
00C0
00C0
0060
0060
0060
0060
0060
0060
80C0
80C0
C1C0
C1C0
7F00
7F00
ENDCHAR

STARTCHAR four
ENCODING 52
SWIDTH 720 0
DWIDTH 18 0
BBX 12 30 2 0
BITMAP
00C0
00C0
01C0
01C0
03C0
03C0
06C0
06C0
0CC0
0CC0
08C0
08C0
18C0
18C0
30C0
30C0
60C0
60C0
C0C0
C0C0
FFF0
FFF0
00C0
00C0
00C0
00C0
00C0
00C0
03F0
03F0
ENDCHAR

STARTCHAR five
ENCODING 53
SWIDTH 720 0
DWIDTH 18 0
BBX 11 30 3 0
BITMAP
FFC0
FFC0
C000
C000
C000
C000
C000
C000
C000
C000
DF00
DF00
E3C0
E3C0
00C0
00C0
0060
0060
0060
0060
0060
0060
0060
0060
C0E0
C0E0
E1C0
E1C0
7F00
7F00
ENDCHAR

STARTCHAR six
ENCODING 54
SWIDTH 720 0
DWIDTH 18 0
BBX 12 30 3 0
BITMAP
07E0
07E0
1C00
1C00
3000
3000
6000
6000
4000
4000
C000
C000
DFC0
DFC0
F060
F060
E030
E030
C030
C030
C030
C030
C030
C030
4030
4030
70E0
70E0
1F80
1F80
ENDCHAR

STARTCHAR seven
ENCODING 55
SWIDTH 720 0
DWIDTH 18 0
BBX 12 30 3 0
BITMAP
FFF0
FFF0
C030
C030
C070
C070
C060
C060
00C0
00C0
00C0
00C0
0180
0180
0380
0380
0300
0300
0600
0600
0600
0600
0C00
0C00
0C00
0C00
1800
1800
1800
1800
ENDCHAR

STARTCHAR eight
ENCODING 56
SWIDTH 720 0
DWIDTH 18 0
BBX 12 30 3 0
BITMAP
1F80
1F80
70E0
70E0
6060
6060
C030
C030
C030
C030
6060
6060
3FC0
3FC0
70E0
70E0
E070
E070
C030
C030
C030
C030
C030
C030
E070
E070
70E0
70E0
1F80
1F80
ENDCHAR

STARTCHAR nine
ENCODING 57
SWIDTH 720 0
DWIDTH 18 0
BBX 12 30 3 0
BITMAP
3F80
3F80
60E0
60E0
C060
C060
C030
C030
C030
C030
C030
C030
C070
C070
60F0
60F0
3FB0
3FB0
0030
0030
0060
0060
0060
0060
00C0
00C0
0380
0380
7E00
7E00
ENDCHAR

STARTCHAR colon
ENCODING 58
SWIDTH 720 0
DWIDTH 18 0
BBX 6 20 6 0
BITMAP
30
30
FC
FC
30
30
00
00
00
00
00
00
00
00
30
30
FC
FC
30
30
ENDCHAR

STARTCHAR semicolon
ENCODING 59
SWIDTH 720 0
DWIDTH 18 0
BBX 8 26 5 -6
BITMAP
0C
0C
3F
3F
0C
0C
00
00
00
00
00
00
00
00
1E
1E
1C
1C
38
38
30
30
60
60
C0
C0
ENDCHAR

STARTCHAR less
ENCODING 60
SWIDTH 720 0
DWIDTH 18 0
BBX 11 22 3 2
BITMAP
0060
0060
01C0
01C0
0700
0700
1C00
1C00
3000
3000
E000
E000
3000
3000
1C00
1C00
0700
0700
01C0
01C0
0060
0060
ENDCHAR

STARTCHAR equal
ENCODING 61
SWIDTH 720 0
DWIDTH 18 0
BBX 12 10 3 10
BITMAP
FFF0
FFF0
0000
0000
0000
0000
0000
0000
FFF0
FFF0
ENDCHAR

STARTCHAR greater
ENCODING 62
SWIDTH 720 0
DWIDTH 18 0
BBX 11 22 3 2
BITMAP
C000
C000
7000
7000
1C00
1C00
0700
0700
0180
0180
00E0
00E0
0180
0180
0700
0700
1C00
1C00
7000
7000
C000
C000
ENDCHAR

STARTCHAR question
ENCODING 63
SWIDTH 720 0
DWIDTH 18 0
BBX 11 30 3 0
BITMAP
1F00
1F00
71C0
71C0
C060
C060
C060
C060
00C0
00C0
0380
0380
0600
0600
0600
0600
0600
0600
0000
0000
0000
0000
0000
0000
0600
0600
1F80
1F80
0600
0600
ENDCHAR

STARTCHAR at
ENCODING 64
SWIDTH 720 0
DWIDTH 18 0
BBX 14 40 2 -6
BITMAP
0FC0
0FC0
3860
3860
6030
6030
6030
6030
C030
C030
C030
C030
C3F0
C3F0
C630
C630
C630
C630
C630
C630
C630
C630
C630
C630
C630
C630
C3FC
C3FC
C000
C000
C000
C000
6000
6000
600C
600C
381C
381C
0FF0
0FF0
ENDCHAR

STARTCHAR A
ENCODING 65
SWIDTH 720 0
DWIDTH 18 0
BBX 16 30 1 0
BITMAP
0180
0180
0180
0180
03C0
03C0
0660
0660
0660
0660
0660
0660
0C30
0C30
0C30
0C30
1818
1818
1FF8
1FF8
1818
1818
300C
300C
300C
300C
300C
300C
FC3F
FC3F
ENDCHAR

STARTCHAR B
ENCODING 66
SWIDTH 720 0
DWIDTH 18 0
BBX 14 30 1 0
BITMAP
FFE0
FFE0
3038
3038
300C
300C
300C
300C
300C
300C
3018
3018
3FF0
3FF0
3018
3018
300C
300C
300C
300C
300C
300C
300C
300C
300C
300C
3038
3038
FFE0
FFE0
ENDCHAR

STARTCHAR C
ENCODING 67
SWIDTH 720 0
DWIDTH 18 0
BBX 13 30 2 0
BITMAP
1FD8
1FD8
6078
6078
6018
6018
C018
C018
C000
C000
C000
C000
C000
C000
C000
C000
C000
C000
C000
C000
C000
C000
C018
C018
6018
6018
7070
7070
1FC0
1FC0
ENDCHAR

STARTCHAR D
ENCODING 68
SWIDTH 720 0
DWIDTH 18 0
BBX 14 30 1 0
BITMAP
FFE0
FFE0
3038
3038
300C
300C
300C
300C
300C
300C
300C
300C
300C
300C
300C
300C
300C
300C
300C
300C
300C
300C
300C
300C
300C
300C
3038
3038
FFE0
FFE0
ENDCHAR

STARTCHAR E
ENCODING 69
SWIDTH 720 0
DWIDTH 18 0
BBX 13 30 2 0
BITMAP
FFF8
FFF8
3018
3018
3018
3018
3018
3018
3000
3000
3040
3040
3040
3040
3FC0
3FC0
3040
3040
3040
3040
3000
3000
3018
3018
3018
3018
3018
3018
FFF8
FFF8
ENDCHAR

STARTCHAR F
ENCODING 70
SWIDTH 720 0
DWIDTH 18 0
BBX 14 30 2 0
BITMAP
FFFC
FFFC
300C
300C
300C
300C
300C
300C
3000
3000
3040
3040
3040
3040
3FC0
3FC0
3040
3040
3040
3040
3000
3000
3000
3000
3000
3000
3000
3000
FE00
FE00
ENDCHAR

STARTCHAR G
ENCODING 71
SWIDTH 720 0
DWIDTH 18 0
BBX 14 30 2 0
BITMAP
1FD8
1FD8
7078
7078
6018
6018
C018
C018
C000
C000
C000
C000
C000
C000
C000
C000
C07C
C07C
C018
C018
C018
C018
C018
C018
6018
6018
7030
7030
1FE0
1FE0
ENDCHAR

STARTCHAR H
ENCODING 72
SWIDTH 720 0
DWIDTH 18 0
BBX 16 30 1 0
BITMAP
FC3F
FC3F
300C
300C
300C
300C
300C
300C
300C
300C
300C
300C
300C
300C
3FFC
3FFC
300C
300C
300C
300C
300C
300C
300C
300C
300C
300C
300C
300C
FC3F
FC3F
ENDCHAR

STARTCHAR I
ENCODING 73
SWIDTH 720 0
DWIDTH 18 0
BBX 12 30 3 0
BITMAP
FFF0
FFF0
0600
0600
0600
0600
0600
0600
0600
0600
0600
0600
0600
0600
0600
0600
0600
0600
0600
0600
0600
0600
0600
0600
0600
0600
0600
0600
FFF0
FFF0
ENDCHAR

STARTCHAR J
ENCODING 74
SWIDTH 720 0
DWIDTH 18 0
BBX 14 30 2 0
BITMAP
07FC
07FC
0060
0060
0060
0060
0060
0060
0060
0060
0060
0060
0060
0060
0060
0060
0060
0060
0060
0060
C060
C060
C060
C060
C060
C060
60C0
60C0
1F80
1F80
ENDCHAR

STARTCHAR K
ENCODING 75
SWIDTH 720 0
DWIDTH 18 0
BBX 14 30 2 0
BITMAP
FCFC
FCFC
3030
3030
3060
3060
30C0
30C0
3180
3180
3300
3300
3780
3780
3D80
3D80
38C0
38C0
3060
3060
3060
3060
3030
3030
3038
3038
3018
3018
FC3C
FC3C
ENDCHAR

STARTCHAR L
ENCODING 76
SWIDTH 720 0
DWIDTH 18 0
BBX 13 30 3 0
BITMAP
FC00
FC00
3000
3000
3000
3000
3000
3000
3000
3000
3000
3000
3000
3000
3000
3000
3000
3000
3000
3000
3000
3000
3000
3000
3018
3018
3018
3018
FFF8
FFF8
ENDCHAR

STARTCHAR M
ENCODING 77
SWIDTH 720 0
DWIDTH 18 0
BBX 15 30 2 0
BITMAP
F01E
F01E
3018
3018
3838
3838
3838
3838
3838
3838
3458
3458
3458
3458
36D8
36D8
3298
3298
3298
3298
3118
3118
3118
3118
3018
3018
3018
3018
FC7E
FC7E
ENDCHAR

STARTCHAR N
ENCODING 78
SWIDTH 720 0
DWIDTH 18 0
BBX 16 30 1 0
BITMAP
F83F
F83F
3C0C
3C0C
340C
340C
360C
360C
320C
320C
330C
330C
310C
310C
318C
318C
30CC
30CC
304C
304C
306C
306C
302C
302C
303C
303C
301C
301C
FC1C
FC1C
ENDCHAR

STARTCHAR O
ENCODING 79
SWIDTH 720 0
DWIDTH 18 0
BBX 14 30 2 0
BITMAP
1FE0
1FE0
7038
7038
6018
6018
C00C
C00C
C00C
C00C
C00C
C00C
C00C
C00C
C00C
C00C
C00C
C00C
C00C
C00C
C00C
C00C
C00C
C00C
6018
6018
7038
7038
1FE0
1FE0
ENDCHAR

STARTCHAR P
ENCODING 80
SWIDTH 720 0
DWIDTH 18 0
BBX 14 30 2 0
BITMAP
FFF0
FFF0
3018
3018
300C
300C
300C
300C
300C
300C
300C
300C
3018
3018
3FF0
3FF0
3000
3000
3000
3000
3000
3000
3000
3000
3000
3000
3000
3000
FE00
FE00
ENDCHAR

STARTCHAR Q
ENCODING 81
SWIDTH 720 0
DWIDTH 18 0
BBX 14 38 2 -8
BITMAP
1FE0
1FE0
7038
7038
6018
6018
C00C
C00C
C00C
C00C
C00C
C00C
C00C
C00C
C00C
C00C
C00C
C00C
C00C
C00C
C00C
C00C
C00C
C00C
6018
6018
7038
7038
1FE0
1FE0
0400
0400
0400
0400
3F18
3F18
71F0
71F0
ENDCHAR

STARTCHAR R
ENCODING 82
SWIDTH 720 0
DWIDTH 18 0
BBX 15 30 2 0
BITMAP
FFE0
FFE0
3030
3030
3018
3018
3018
3018
3018
3018
3030
3030
3FE0
3FE0
3180
3180
30C0
30C0
3060
3060
3060
3060
3030
3030
3030
3030
3018
3018
FC1E
FC1E
ENDCHAR

STARTCHAR S
ENCODING 83
SWIDTH 720 0
DWIDTH 18 0
BBX 12 30 3 0
BITMAP
3FB0
3FB0
6070
6070
C030
C030
C030
C030
E000
E000
7C00
7C00
1F80
1F80
03E0
03E0
0070
0070
0030
0030
C030
C030
C030
C030
C030
C030
F060
F060
DFC0
DFC0
ENDCHAR

STARTCHAR T
ENCODING 84
SWIDTH 720 0
DWIDTH 18 0
BBX 14 30 2 0
BITMAP
FFFC
FFFC
C30C
C30C
C30C
C30C
C30C
C30C
C30C
C30C
0300
0300
0300
0300
0300
0300
0300
0300
0300
0300
0300
0300
0300
0300
0300
0300
0300
0300
1FE0
1FE0
ENDCHAR

STARTCHAR U
ENCODING 85
SWIDTH 720 0
DWIDTH 18 0
BBX 16 30 1 0
BITMAP
FC3F
FC3F
300C
300C
300C
300C
300C
300C
300C
300C
300C
300C
300C
300C
300C
300C
300C
300C
300C
300C
300C
300C
300C
300C
300C
300C
1818
1818
0FF0
0FF0
ENDCHAR

STARTCHAR V
ENCODING 86
SWIDTH 720 0
DWIDTH 18 0
BBX 15 30 2 0
BITMAP
FCFE
FCFE
3018
3018
3018
3018
3018
3018
1830
1830
1830
1830
1830
1830
0C60
0C60
0C60
0C60
0C60
0C60
06C0
06C0
06C0
06C0
06C0
06C0
0380
0380
0380
0380
ENDCHAR

STARTCHAR W
ENCODING 87
SWIDTH 720 0
DWIDTH 18 0
BBX 16 30 1 0
BITMAP
F00F
F00F
6006
6006
6006
6006
6186
6186
6186
6186
318C
318C
318C
318C
33CC
33CC
33CC
33CC
324C
324C
366C
366C
366C
366C
1428
1428
1C38
1C38
1C38
1C38
ENDCHAR

STARTCHAR X
ENCODING 88
SWIDTH 720 0
DWIDTH 18 0
BBX 15 30 2 0
BITMAP
F83C
F83C
7018
7018
3830
3830
1860
1860
0C40
0C40
0EC0
0EC0
0780
0780
0380
0380
07C0
07C0
0CE0
0CE0
1870
1870
1830
1830
3018
3018
701C
701C
F83E
F83E
ENDCHAR

STARTCHAR Y
ENCODING 89
SWIDTH 720 0
DWIDTH 18 0
BBX 16 30 1 0
BITMAP
FE7F
FE7F
380C
380C
181C
181C
1C18
1C18
0C30
0C30
0660
0660
0660
0660
03C0
03C0
03C0
03C0
0180
0180
0180
0180
0180
0180
0180
0180
0180
0180
0FF0
0FF0
ENDCHAR

STARTCHAR Z
ENCODING 90
SWIDTH 720 0
DWIDTH 18 0
BBX 12 30 3 0
BITMAP
FFF0
FFF0
C030
C030
C070
C070
C0E0
C0E0
01C0
01C0
0180
0180
0300
0300
0600
0600
0C00
0C00
1800
1800
3800
3800
7030
7030
E030
E030
C030
C030
FFF0
FFF0
ENDCHAR

STARTCHAR bracketleft
ENCODING 91
SWIDTH 720 0
DWIDTH 18 0
BBX 7 44 7 -8
BITMAP
FE
FE
C0
C0
C0
C0
C0
C0
C0
C0
C0
C0
C0
C0
C0
C0
C0
C0
C0
C0
C0
C0
C0
C0
C0
C0
C0
C0
C0
C0
C0
C0
C0
C0
C0
C0
C0
C0
C0
C0
C0
C0
FE
FE
ENDCHAR

STARTCHAR backslash
ENCODING 92
SWIDTH 720 0
DWIDTH 18 0
BBX 10 38 4 -4
BITMAP
C000
C000
C000
C000
6000
6000
6000
6000
3000
3000
3000
3000
1800
1800
1800
1800
0C00
0C00
0C00
0C00
0C00
0C00
0600
0600
0600
0600
0300
0300
0300
0300
0180
0180
0180
0180
00C0
00C0
00C0
00C0
ENDCHAR

STARTCHAR bracketright
ENCODING 93
SWIDTH 720 0
DWIDTH 18 0
BBX 6 44 5 -8
BITMAP
FC
FC
0C
0C
0C
0C
0C
0C
0C
0C
0C
0C
0C
0C
0C
0C
0C
0C
0C
0C
0C
0C
0C
0C
0C
0C
0C
0C
0C
0C
0C
0C
0C
0C
0C
0C
0C
0C
0C
0C
0C
0C
FC
FC
ENDCHAR

STARTCHAR asciicircum
ENCODING 94
SWIDTH 720 0
DWIDTH 18 0
BBX 12 8 3 14
BITMAP
0600
0600
1F80
1F80
39C0
39C0
E070
E070
ENDCHAR

STARTCHAR ldblank
ENCODING 95
SWIDTH 720 0
DWIDTH 16 0
BBX 1 1 0 0
BITMAP
00
ENDCHAR

STARTCHAR diamond
ENCODING 96
SWIDTH 720 0
DWIDTH 18 0
BBX 14 26 2 2
BITMAP
0300
0300
0780
0780
0FC0
0FC0
1FE0
1FE0
3FF0
3FF0
7FF8
7FF8
FFFC
FFFC
7FF8
7FF8
3FF0
3FF0
1FE0
1FE0
0FC0
0FC0
0780
0780
0300
0300
ENDCHAR

STARTCHAR checkerboard
ENCODING 97
SWIDTH 720 0
DWIDTH 9 0
BBX 18 50 0 -10
BITMAP
AAAA80
555540
AAAA80
555540
AAAA80
555540
AAAA80
555540
AAAA80
555540
AAAA80
555540
AAAA80
555540
AAAA80
555540
AAAA80
555540
AAAA80
555540
AAAA80
555540
AAAA80
555540
AAAA80
555540
AAAA80
555540
AAAA80
555540
AAAA80
555540
AAAA80
555540
AAAA80
555540
AAAA80
555540
AAAA80
555540
AAAA80
555540
AAAA80
555540
AAAA80
555540
AAAA80
555540
AAAA80
555540
ENDCHAR

STARTCHAR HT
ENCODING 98
SWIDTH 720 0
DWIDTH 18 0
BBX 14 36 2 -4
BITMAP
C300
C300
C300
C300
C300
C300
C300
C300
FF00
FF00
C300
C300
C300
C300
C300
C300
C300
C300
0000
0000
03FC
03FC
0060
0060
0060
0060
0060
0060
0060
0060
0060
0060
0060
0060
0060
0060
ENDCHAR

STARTCHAR FF
ENCODING 99
SWIDTH 720 0
DWIDTH 18 0
BBX 12 36 3 -4
BITMAP
FE00
FE00
C000
C000
C000
C000
C000
C000
FE00
FE00
C000
C000
C000
C000
C000
C000
C000
C000
07F0
07F0
0600
0600
0600
0600
0600
0600
07F0
07F0
0600
0600
0600
0600
0600
0600
0600
0600
ENDCHAR

STARTCHAR CR
ENCODING 100
SWIDTH 720 0
DWIDTH 18 0
BBX 14 36 2 -4
BITMAP
3E00
3E00
6300
6300
C180
C180
C000
C000
C000
C000
C000
C000
C180
C180
6300
6300
3E00
3E00
0000
0000
03F8
03F8
031C
031C
030C
030C
0318
0318
03F0
03F0
0330
0330
0318
0318
030C
030C
ENDCHAR

STARTCHAR LF
ENCODING 101
SWIDTH 720 0
DWIDTH 18 0
BBX 13 36 3 -4
BITMAP
C000
C000
C000
C000
C000
C000
C000
C000
C000
C000
C000
C000
C000
C000
FE00
FE00
0000
0000
03F8
03F8
0300
0300
0300
0300
0300
0300
03F8
03F8
0300
0300
0300
0300
0300
0300
0300
0300
ENDCHAR

STARTCHAR degree
ENCODING 102
SWIDTH 720 0
DWIDTH 18 0
BBX 9 16 4 16
BITMAP
3E00
3E00
7F00
7F00
C180
C180
C180
C180
C180
C180
C180
C180
7F00
7F00
3E00
3E00
ENDCHAR

STARTCHAR plusminus
ENCODING 103
SWIDTH 720 0
DWIDTH 18 0
BBX 12 28 3 0
BITMAP
0600
0600
0600
0600
0600
0600
0600
0600
0600
0600
FFF0
FFF0
0600
0600
0600
0600
0600
0600
0600
0600
0600
0600
0000
0000
FFF0
FFF0
FFF0
FFF0
ENDCHAR

STARTCHAR NL
ENCODING 104
SWIDTH 720 0
DWIDTH 18 0
BBX 13 36 3 -4
BITMAP
8100
8100
C100
C100
E100
E100
B100
B100
9900
9900
8D00
8D00
8700
8700
8300
8300
8100
8100
0000
0000
0300
0300
0300
0300
0300
0300
0300
0300
0300
0300
0300
0300
0300
0300
03F8
03F8
ENDCHAR

STARTCHAR VT
ENCODING 105
SWIDTH 720 0
DWIDTH 18 0
BBX 13 36 3 -4
BITMAP
C180
C180
C180
C180
6300
6300
6300
6300
2200
2200
3600
3600
1400
1400
1C00
1C00
0800
0800
0000
0000
07F8
07F8
00C0
00C0
00C0
00C0
00C0
00C0
00C0
00C0
00C0
00C0
00C0
00C0
00C0
00C0
ENDCHAR

STARTCHAR ldcornsqlr
ENCODING 106
SWIDTH 720 0
DWIDTH 18 0
BBX 9 28 0 12
BITMAP
0180
0180
0180
0180
0180
0180
0180
0180
0180
0180
0180
0180
0180
0180
0180
0180
0180
0180
0180
0180
0180
0180
0180
0180
0180
0180
FF80
FF80
ENDCHAR

STARTCHAR ldcornsqur
ENCODING 107
SWIDTH 720 0
DWIDTH 18 0
BBX 9 24 0 -10
BITMAP
FF80
FF80
0180
0180
0180
0180
0180
0180
0180
0180
0180
0180
0180
0180
0180
0180
0180
0180
0180
0180
0180
0180
0180
0180
ENDCHAR

STARTCHAR ldcornsqul
ENCODING 108
SWIDTH 720 0
DWIDTH 18 0
BBX 11 24 7 -10
BITMAP
FFE0
FFE0
C000
C000
C000
C000
C000
C000
C000
C000
C000
C000
C000
C000
C000
C000
C000
C000
C000
C000
C000
C000
C000
C000
ENDCHAR

STARTCHAR ldcornsqll
ENCODING 109
SWIDTH 720 0
DWIDTH 18 0
BBX 11 28 7 12
BITMAP
C000
C000
C000
C000
C000
C000
C000
C000
C000
C000
C000
C000
C000
C000
C000
C000
C000
C000
C000
C000
C000
C000
C000
C000
C000
C000
FFE0
FFE0
ENDCHAR

STARTCHAR ldcross
ENCODING 110
SWIDTH 720 0
DWIDTH 18 0
BBX 18 50 0 -10
BITMAP
018000
018000
018000
018000
018000
018000
018000
018000
018000
018000
018000
018000
018000
018000
018000
018000
018000
018000
018000
018000
018000
018000
018000
018000
018000
018000
FFFFC0
FFFFC0
018000
018000
018000
018000
018000
018000
018000
018000
018000
018000
018000
018000
018000
018000
018000
018000
018000
018000
018000
018000
018000
018000
ENDCHAR

STARTCHAR ldscan1
ENCODING 111
SWIDTH 720 0
DWIDTH 18 0
BBX 18 2 0 34
BITMAP
FFFFC0
FFFFC0
ENDCHAR

STARTCHAR ldscan3
ENCODING 112
SWIDTH 720 0
DWIDTH 18 0
BBX 18 2 0 22
BITMAP
FFFFC0
FFFFC0
ENDCHAR

STARTCHAR ldhorizontal
ENCODING 113
SWIDTH 720 0
DWIDTH 18 0
BBX 18 2 0 12
BITMAP
FFFFC0
FFFFC0
ENDCHAR

STARTCHAR ldscan7
ENCODING 114
SWIDTH 720 0
DWIDTH 18 0
BBX 18 2 0 0
BITMAP
FFFFC0
FFFFC0
ENDCHAR

STARTCHAR ldscan9
ENCODING 115
SWIDTH 720 0
DWIDTH 18 0
BBX 18 2 0 -10
BITMAP
FFFFC0
FFFFC0
ENDCHAR

STARTCHAR ldteelft
ENCODING 116
SWIDTH 720 0
DWIDTH 18 0
BBX 11 50 7 -10
BITMAP
C000
C000
C000
C000
C000
C000
C000
C000
C000
C000
C000
C000
C000
C000
C000
C000
C000
C000
C000
C000
C000
C000
C000
C000
C000
C000
FFE0
FFE0
C000
C000
C000
C000
C000
C000
C000
C000
C000
C000
C000
C000
C000
C000
C000
C000
C000
C000
C000
C000
C000
C000
ENDCHAR

STARTCHAR ldteert
ENCODING 117
SWIDTH 720 0
DWIDTH 18 0
BBX 9 50 0 -10
BITMAP
0180
0180
0180
0180
0180
0180
0180
0180
0180
0180
0180
0180
0180
0180
0180
0180
0180
0180
0180
0180
0180
0180
0180
0180
0180
0180
FF80
FF80
0180
0180
0180
0180
0180
0180
0180
0180
0180
0180
0180
0180
0180
0180
0180
0180
0180
0180
0180
0180
0180
0180
ENDCHAR

STARTCHAR ldteebt
ENCODING 118
SWIDTH 720 0
DWIDTH 18 0
BBX 18 28 0 12
BITMAP
018000
018000
018000
018000
018000
018000
018000
018000
018000
018000
018000
018000
018000
018000
018000
018000
018000
018000
018000
018000
018000
018000
018000
018000
018000
018000
FFFFC0
FFFFC0
ENDCHAR

STARTCHAR ldteetp
ENCODING 119
SWIDTH 720 0
DWIDTH 18 0
BBX 18 24 0 -10
BITMAP
FFFFC0
FFFFC0
018000
018000
018000
018000
018000
018000
018000
018000
018000
018000
018000
018000
018000
018000
018000
018000
018000
018000
018000
018000
018000
018000
ENDCHAR

STARTCHAR ldvertical
ENCODING 120
SWIDTH 720 0
DWIDTH 18 0
BBX 2 50 7 -10
BITMAP
C0
C0
C0
C0
C0
C0
C0
C0
C0
C0
C0
C0
C0
C0
C0
C0
C0
C0
C0
C0
C0
C0
C0
C0
C0
C0
C0
C0
C0
C0
C0
C0
C0
C0
C0
C0
C0
C0
C0
C0
C0
C0
C0
C0
C0
C0
C0
C0
C0
C0
ENDCHAR

STARTCHAR lessequal
ENCODING 121
SWIDTH 720 0
DWIDTH 18 0
BBX 13 24 2 2
BITMAP
0078
0078
0780
0780
3800
3800
E000
E000
3800
3800
0780
0780
0078
0078
0000
0000
0000
0000
0000
0000
0000
0000
FFF8
FFF8
ENDCHAR

STARTCHAR greaterequal
ENCODING 122
SWIDTH 720 0
DWIDTH 18 0
BBX 13 24 2 2
BITMAP
F000
F000
0F00
0F00
00E0
00E0
0038
0038
00E0
00E0
0F00
0F00
F000
F000
0000
0000
0000
0000
0000
0000
0000
0000
FFF8
FFF8
ENDCHAR

STARTCHAR pi
ENCODING 123
SWIDTH 720 0
DWIDTH 18 0
BBX 14 24 2 0
BITMAP
FFFC
FFFC
1860
1860
1860
1860
1860
1860
30C0
30C0
30C0
30C0
30C0
30C0
30C0
30C0
6180
6180
6180
6180
6180
6180
61E0
61E0
ENDCHAR

STARTCHAR notequal
ENCODING 124
SWIDTH 720 0
DWIDTH 18 0
BBX 14 22 1 4
BITMAP
00C0
00C0
00C0
00C0
00C0
00C0
FFFC
FFFC
0300
0300
0300
0300
0300
0300
FFFC
FFFC
0C00
0C00
0C00
0C00
0C00
0C00
ENDCHAR

STARTCHAR sterling
ENCODING 125
SWIDTH 720 0
DWIDTH 18 0
BBX 14 30 2 0
BITMAP
07C0
07C0
0C70
0C70
1830
1830
1830
1830
0C00
0C00
0C00
0C00
0600
0600
3FE0
3FE0
0600
0600
0600
0600
0C00
0C00
0C00
0C00
380C
380C
7F8C
7F8C
C3F8
C3F8
ENDCHAR

STARTCHAR periodcentered
ENCODING 126
SWIDTH 720 0
DWIDTH 18 0
BBX 6 10 6 10
BITMAP
30
30
78
78
FC
FC
78
78
30
30
ENDCHAR

STARTCHAR Error
ENCODING 159
SWIDTH 720 0
DWIDTH 18 0
BBX 17 50 0 -10
BITMAP
0FFC00
0FFC00
3FFF00
3FFF00
7FFF80
7FFF80
FC1F80
FC1F80
F80F80
F80F80
F80F80
F80F80
FC0F80
FC0F80
FE0000
FE0000
7F0000
7F0000
3F8000
3F8000
1FC000
1FC000
0FE000
0FE000
07E000
07E000
07E000
07E000
07E000
07E000
07E000
07E000
000000
000000
000000
000000
000000
000000
03C000
03C000
07E000
07E000
0FF000
0FF000
0FF000
0FF000
07E000
07E000
03C000
03C000
ENDCHAR

STARTCHAR ldradicalbt
ENCODING 161
SWIDTH 720 0
DWIDTH 18 0
BBX 8 34 1 6
BITMAP
03
03
03
03
03
03
03
03
03
03
03
03
03
03
03
03
03
03
23
23
73
73
FB
FB
BF
BF
1F
1F
0F
0F
07
07
03
03
ENDCHAR

STARTCHAR ldradicaltp
ENCODING 162
SWIDTH 720 0
DWIDTH 18 0
BBX 11 24 7 -10
BITMAP
FFE0
FFE0
C000
C000
C000
C000
C000
C000
C000
C000
C000
C000
C000
C000
C000
C000
C000
C000
C000
C000
C000
C000
C000
C000
ENDCHAR

STARTCHAR ldhorizontal
ENCODING 163
SWIDTH 720 0
DWIDTH 18 0
BBX 18 2 0 12
BITMAP
FFFFC0
FFFFC0
ENDCHAR

STARTCHAR ldintegraltp
ENCODING 164
SWIDTH 720 0
DWIDTH 18 0
BBX 7 46 7 -10
BITMAP
7C
7C
C6
C6
C6
C6
C0
C0
C0
C0
C0
C0
C0
C0
C0
C0
C0
C0
C0
C0
C0
C0
C0
C0
C0
C0
C0
C0
C0
C0
C0
C0
C0
C0
C0
C0
C0
C0
C0
C0
C0
C0
C0
C0
C0
C0
ENDCHAR

STARTCHAR ldintegralbt
ENCODING 165
SWIDTH 720 0
DWIDTH 18 0
BBX 7 50 2 -10
BITMAP
06
06
06
06
06
06
06
06
06
06
06
06
06
06
06
06
06
06
06
06
06
06
06
06
06
06
06
06
06
06
06
06
06
06
06
06
06
06
06
06
06
06
06
06
C6
C6
C6
C6
7C
7C
ENDCHAR

STARTCHAR ldvertical
ENCODING 166
SWIDTH 720 0
DWIDTH 18 0
BBX 2 50 7 -10
BITMAP
C0
C0
C0
C0
C0
C0
C0
C0
C0
C0
C0
C0
C0
C0
C0
C0
C0
C0
C0
C0
C0
C0
C0
C0
C0
C0
C0
C0
C0
C0
C0
C0
C0
C0
C0
C0
C0
C0
C0
C0
C0
C0
C0
C0
C0
C0
C0
C0
C0
C0
ENDCHAR

STARTCHAR ldbracketlfttp
ENCODING 167
SWIDTH 720 0
DWIDTH 18 0
BBX 8 46 7 -10
BITMAP
FF
FF
C0
C0
C0
C0
C0
C0
C0
C0
C0
C0
C0
C0
C0
C0
C0
C0
C0
C0
C0
C0
C0
C0
C0
C0
C0
C0
C0
C0
C0
C0
C0
C0
C0
C0
C0
C0
C0
C0
C0
C0
C0
C0
C0
C0
ENDCHAR

STARTCHAR ldbracketlftbt
ENCODING 168
SWIDTH 720 0
DWIDTH 18 0
BBX 8 50 7 -10
BITMAP
C0
C0
C0
C0
C0
C0
C0
C0
C0
C0
C0
C0
C0
C0
C0
C0
C0
C0
C0
C0
C0
C0
C0
C0
C0
C0
C0
C0
C0
C0
C0
C0
C0
C0
C0
C0
C0
C0
C0
C0
C0
C0
C0
C0
C0
C0
C0
C0
FF
FF
ENDCHAR

STARTCHAR ldbracketrttp
ENCODING 169
SWIDTH 720 0
DWIDTH 18 0
BBX 8 46 1 -10
BITMAP
FF
FF
03
03
03
03
03
03
03
03
03
03
03
03
03
03
03
03
03
03
03
03
03
03
03
03
03
03
03
03
03
03
03
03
03
03
03
03
03
03
03
03
03
03
03
03
ENDCHAR

STARTCHAR ldbracketrtbt
ENCODING 170
SWIDTH 720 0
DWIDTH 18 0
BBX 8 48 1 -8
BITMAP
03
03
03
03
03
03
03
03
03
03
03
03
03
03
03
03
03
03
03
03
03
03
03
03
03
03
03
03
03
03
03
03
03
03
03
03
03
03
03
03
03
03
03
03
03
03
FF
FF
ENDCHAR

STARTCHAR ldbracelfttp
ENCODING 171
SWIDTH 720 0
DWIDTH 18 0
BBX 9 46 7 -10
BITMAP
0780
0780
1C00
1C00
3000
3000
6000
6000
6000
6000
C000
C000
C000
C000
C000
C000
C000
C000
C000
C000
C000
C000
C000
C000
C000
C000
C000
C000
C000
C000
C000
C000
C000
C000
C000
C000
C000
C000
C000
C000
C000
C000
C000
C000
C000
C000
ENDCHAR

STARTCHAR ldbracelftbt
ENCODING 172
SWIDTH 720 0
DWIDTH 18 0
BBX 9 48 7 -8
BITMAP
C000
C000
C000
C000
C000
C000
C000
C000
C000
C000
C000
C000
C000
C000
C000
C000
C000
C000
C000
C000
C000
C000
C000
C000
C000
C000
C000
C000
C000
C000
C000
C000
C000
C000
C000
C000
C000
C000
6000
6000
6000
6000
3000
3000
1C00
1C00
0780
0780
ENDCHAR

STARTCHAR ldbracerttp
ENCODING 173
SWIDTH 720 0
DWIDTH 18 0
BBX 8 46 1 -10
BITMAP
F0
F0
1C
1C
0C
0C
06
06
06
06
03
03
03
03
03
03
03
03
03
03
03
03
03
03
03
03
03
03
03
03
03
03
03
03
03
03
03
03
03
03
03
03
03
03
03
03
ENDCHAR

STARTCHAR ldbracertbt
ENCODING 174
SWIDTH 720 0
DWIDTH 18 0
BBX 9 50 0 -10
BITMAP
0180
0180
0180
0180
0180
0180
0180
0180
0180
0180
0180
0180
0180
0180
0180
0180
0180
0180
0180
0180
0180
0180
0180
0180
0180
0180
0180
0180
0180
0180
0180
0180
0180
0180
0180
0180
0180
0180
0180
0180
0300
0300
0300
0300
0600
0600
1C00
1C00
F000
F000
ENDCHAR

STARTCHAR ldbracelftmid
ENCODING 175
SWIDTH 720 0
DWIDTH 18 0
BBX 7 50 2 -10
BITMAP
06
06
06
06
06
06
06
06
06
06
06
06
06
06
06
06
06
06
06
06
06
06
06
06
1C
1C
F0
F0
1C
1C
06
06
06
06
06
06
06
06
06
06
06
06
06
06
06
06
06
06
06
06
ENDCHAR

STARTCHAR ldbracertmid
ENCODING 176
SWIDTH 720 0
DWIDTH 18 0
BBX 7 50 7 -10
BITMAP
C0
C0
C0
C0
C0
C0
C0
C0
C0
C0
C0
C0
C0
C0
C0
C0
C0
C0
C0
C0
C0
C0
C0
C0
70
70
1E
1E
70
70
C0
C0
C0
C0
C0
C0
C0
C0
C0
C0
C0
C0
C0
C0
C0
C0
C0
C0
C0
C0
ENDCHAR

STARTCHAR ldsigmalfttp
ENCODING 177
SWIDTH 720 0
DWIDTH 18 0
BBX 10 24 8 -10
BITMAP
FFC0
FFC0
C000
C000
C000
C000
6000
6000
7000
7000
3000
3000
1800
1800
0C00
0C00
0600
0600
0700
0700
0380
0380
01C0
01C0
ENDCHAR

STARTCHAR ldsigmalftbt
ENCODING 178
SWIDTH 720 0
DWIDTH 18 0
BBX 9 28 9 12
BITMAP
0080
0180
0180
0180
0300
0300
0700
0700
0600
0600
0C00
0C00
1800
1800
1800
1800
3000
3000
7000
6000
6000
6000
C000
C000
C000
C000
FF80
FF80
ENDCHAR

STARTCHAR ldbackslash
ENCODING 179
SWIDTH 720 0
DWIDTH 19 0
BBX 18 50 0 -10
BITMAP
800000
800000
C00000
C00000
E00000
E00000
600000
600000
300000
300000
300000
300000
180000
180000
0C0000
0E0000
0E0000
060000
070000
070000
030000
038000
018000
018000
00C000
00C000
00E000
00E000
006000
006000
003000
003000
003800
003800
001800
001800
000C00
000C00
000E00
000E00
000600
000600
000300
000300
000380
000180
0001C0
0001C0
0000C0
0000C0
ENDCHAR

STARTCHAR ldslash
ENCODING 180
SWIDTH 720 0
DWIDTH 18 0
BBX 18 50 0 -10
BITMAP
0000C0
0000C0
000180
000180
000380
000380
000300
000300
000600
000600
000600
000600
000C00
000C00
001800
001800
001800
001800
003000
003000
007000
007000
006000
006000
00C000
00C000
01C000
01C000
018000
018000
030000
030000
070000
070000
060000
060000
0C0000
0C0000
1C0000
1C0000
180000
180000
300000
300000
700000
700000
600000
600000
C00000
C00000
ENDCHAR

STARTCHAR ldsigmarttp
ENCODING 181
SWIDTH 720 0
DWIDTH 18 0
BBX 15 12 0 2
BITMAP
FFFE
FFFE
0006
0006
0006
0006
0006
0006
0006
0006
0006
0006
ENDCHAR

STARTCHAR ldsigmartbt
ENCODING 182
SWIDTH 720 0
DWIDTH 18 0
BBX 15 12 0 12
BITMAP
0006
0006
0006
0006
0006
0006
0006
0006
0006
0006
FFFE
FFFE
ENDCHAR

STARTCHAR ldsigmamid
ENCODING 183
SWIDTH 720 0
DWIDTH 18 0
BBX 9 50 0 -10
BITMAP
8000
8000
8000
8000
C000
C000
C000
C000
6000
6000
3000
3000
1800
1800
1800
1800
0C00
0C00
0600
0600
0300
0300
0300
0300
0180
0180
0180
0180
0300
0300
0300
0300
0600
0600
0C00
0C00
0C00
0C00
1800
1800
3000
3000
6000
6000
6000
6000
C000
C000
8000
8000
ENDCHAR

STARTCHAR lessequal
ENCODING 188
SWIDTH 720 0
DWIDTH 18 0
BBX 13 24 1 2
BITMAP
0078
0078
0780
0780
3800
3800
E000
E000
3800
3800
0780
0780
0078
0078
0000
0000
0000
0000
0000
0000
0000
0000
FFF8
FFF8
ENDCHAR

STARTCHAR notequal
ENCODING 189
SWIDTH 720 0
DWIDTH 18 0
BBX 14 22 1 4
BITMAP
00C0
00C0
00C0
00C0
00C0
00C0
FFFC
FFFC
0300
0300
0300
0300
0300
0300
FFFC
FFFC
0C00
0C00
0C00
0C00
0C00
0C00
ENDCHAR

STARTCHAR greaterequal
ENCODING 190
SWIDTH 720 0
DWIDTH 18 0
BBX 13 24 2 2
BITMAP
F000
F000
0F00
0F00
00E0
00E0
0038
0038
00E0
00E0
0F00
0F00
F000
F000
0000
0000
0000
0000
0000
0000
0000
0000
FFF8
FFF8
ENDCHAR

STARTCHAR integral
ENCODING 191
SWIDTH 720 0
DWIDTH 18 0
BBX 12 48 2 -10
BITMAP
03E0
03E0
0610
0610
0600
0600
0600
0600
0600
0600
0600
0600
0600
0600
0600
0600
0600
0600
0600
0600
0600
0600
0600
0600
0600
0600
0600
0600
0600
0600
0600
0600
0600
0600
0600
0600
0600
0600
0600
0600
0600
0600
0600
0600
8600
8600
7C00
7C00
ENDCHAR

STARTCHAR therefore
ENCODING 192
SWIDTH 720 0
DWIDTH 18 0
BBX 14 20 1 4
BITMAP
0300
0300
0FC0
0FC0
0FC0
0FC0
0300
0300
0000
0000
0000
0000
3030
3030
FCFC
FCFC
FCFC
FCFC
3030
3030
ENDCHAR

STARTCHAR proportional
ENCODING 193
SWIDTH 720 0
DWIDTH 18 0
BBX 14 18 1 6
BITMAP
3E7C
3E7C
63C0
63C0
C180
C180
C180
C180
C180
C180
C180
C180
C180
C180
63C0
63C0
3E7C
3E7C
ENDCHAR

STARTCHAR infinity
ENCODING 194
SWIDTH 720 0
DWIDTH 18 0
BBX 16 18 0 6
BITMAP
3E7C
3E7C
6386
6386
C183
C183
C183
C183
C183
C183
C183
C183
C183
C183
61C6
61C6
3E7C
3E7C
ENDCHAR

STARTCHAR divide
ENCODING 195
SWIDTH 720 0
DWIDTH 18 0
BBX 12 18 2 6
BITMAP
0600
0600
0600
0600
0000
0000
0000
0000
FFF0
FFF0
0000
0000
0000
0000
0600
0600
0600
0600
ENDCHAR

STARTCHAR Delta
ENCODING 196
SWIDTH 720 0
DWIDTH 18 0
BBX 14 30 1 0
BITMAP
0300
0300
0300
0300
0780
0780
0780
0780
0CC0
0CC0
0CC0
0CC0
0CC0
0CC0
1860
1860
1860
1860
3030
3030
3030
3030
7038
7038
6018
6018
FFFC
FFFC
FFFC
FFFC
ENDCHAR

STARTCHAR gradient
ENCODING 197
SWIDTH 720 0
DWIDTH 18 0
BBX 14 30 1 0
BITMAP
FFFC
FFFC
FFFC
FFFC
6018
6018
7038
7038
3030
3030
3030
3030
1860
1860
1860
1860
0CC0
0CC0
0CC0
0CC0
0CC0
0CC0
0780
0780
0780
0780
0300
0300
0300
0300
ENDCHAR

STARTCHAR Phi
ENCODING 198
SWIDTH 720 0
DWIDTH 18 0
BBX 12 30 2 0
BITMAP
3FC0
3FC0
0600
0600
0600
0600
3FC0
3FC0
6660
6660
C630
C630
C630
C630
C630
C630
C630
C630
C630
C630
6660
6660
3FC0
3FC0
0600
0600
0600
0600
3FC0
3FC0
ENDCHAR

STARTCHAR Gamma
ENCODING 199
SWIDTH 720 0
DWIDTH 18 0
BBX 13 30 2 0
BITMAP
FFF8
FFF8
1818
1818
1818
1818
1818
1818
1800
1800
1800
1800
1800
1800
1800
1800
1800
1800
1800
1800
1800
1800
1800
1800
1800
1800
1800
1800
FFC0
FFC0
ENDCHAR

STARTCHAR similar
ENCODING 200
SWIDTH 720 0
DWIDTH 18 0
BBX 12 8 2 10
BITMAP
3810
3810
7E30
7E30
C7E0
C7E0
81C0
81C0
ENDCHAR

STARTCHAR approxequal
ENCODING 201
SWIDTH 720 0
DWIDTH 18 0
BBX 12 14 2 6
BITMAP
3810
3810
7E30
7E30
C7E0
C7E0
81C0
81C0
0000
0000
0000
0000
FFF0
FFF0
ENDCHAR

STARTCHAR Theta
ENCODING 202
SWIDTH 720 0
DWIDTH 18 0
BBX 12 30 2 0
BITMAP
1F80
1F80
70E0
70E0
6060
6060
C030
C030
C030
C030
C630
C630
C630
C630
C630
C630
C630
C630
C630
C630
C030
C030
C030
C030
6060
6060
70E0
70E0
3FC0
3FC0
ENDCHAR

STARTCHAR multiply
ENCODING 203
SWIDTH 720 0
DWIDTH 18 0
BBX 12 20 2 4
BITMAP
E070
E070
6060
6060
1980
1980
1980
1980
0600
0600
0600
0600
1980
1980
1980
1980
70E0
70E0
E070
E070
ENDCHAR

STARTCHAR Lambda
ENCODING 204
SWIDTH 720 0
DWIDTH 18 0
BBX 16 30 0 0
BITMAP
0180
0180
0180
0180
0180
0180
03C0
03C0
03C0
03C0
0660
0660
0660
0660
0C30
0C30
0C30
0C30
1C38
1C38
1818
1818
381C
381C
300C
300C
700E
700E
FC3F
FC3F
ENDCHAR

STARTCHAR arrowdblboth
ENCODING 205
SWIDTH 720 0
DWIDTH 18 0
BBX 16 20 0 6
BITMAP
1818
1818
300C
300C
6006
6006
7FFE
7FFE
C003
C003
C003
C003
7FFE
7FFE
6006
6006
300C
300C
1818
1818
ENDCHAR

STARTCHAR arrowdblright
ENCODING 206
SWIDTH 720 0
DWIDTH 18 0
BBX 15 20 1 6
BITMAP
01C0
01C0
0070
0070
0018
0018
FFFC
FFFC
0006
0006
0006
0006
FFFC
FFFC
0018
0018
0070
0070
01C0
01C0
ENDCHAR

STARTCHAR equivalence
ENCODING 207
SWIDTH 720 0
DWIDTH 18 0
BBX 12 18 2 6
BITMAP
FFF0
FFF0
0000
0000
0000
0000
0000
0000
FFF0
FFF0
0000
0000
0000
0000
0000
0000
FFF0
FFF0
ENDCHAR

STARTCHAR Pi
ENCODING 208
SWIDTH 720 0
DWIDTH 18 0
BBX 16 30 0 0
BITMAP
FFFF
FFFF
1818
1818
1818
1818
1818
1818
1818
1818
1818
1818
1818
1818
1818
1818
1818
1818
1818
1818
1818
1818
1818
1818
1818
1818
1818
1818
7E7E
7E7E
ENDCHAR

STARTCHAR Psi
ENCODING 209
SWIDTH 720 0
DWIDTH 18 0
BBX 12 30 2 0
BITMAP
1F80
1F80
0600
0600
0600
0600
C630
C630
C630
C630
C630
C630
C630
C630
C630
C630
C630
C630
76E0
76E0
3FC0
3FC0
0600
0600
0600
0600
0600
0600
1F80
1F80
ENDCHAR

STARTCHAR Sigma
ENCODING 211
SWIDTH 720 0
DWIDTH 18 0
BBX 14 30 1 0
BITMAP
FFFC
FFFC
600C
600C
300C
300C
180C
180C
0C00
0C00
0600
0600
0300
0300
0180
0180
0300
0300
0600
0600
0C00
0C00
180C
180C
300C
300C
600C
600C
FFFC
FFFC
ENDCHAR

STARTCHAR radical
ENCODING 214
SWIDTH 720 0
DWIDTH 18 0
BBX 15 40 1 -6
BITMAP
0006
0006
0006
0006
000C
000C
000C
000C
0018
0018
0018
0018
C030
C030
C030
C030
C060
C060
6060
6060
60C0
60C0
60C0
60C0
30C0
30C0
3180
3180
3180
3180
1B00
1B00
1B00
1B00
1E00
1E00
0E00
0E00
0C00
0C00
ENDCHAR

STARTCHAR Omega
ENCODING 215
SWIDTH 720 0
DWIDTH 18 0
BBX 13 30 2 0
BITMAP
0F80
0F80
38E0
38E0
6030
6030
6030
6030
C018
C018
C018
C018
C018
C018
C018
C018
C018
C018
6030
6030
6030
6030
3060
3060
3060
3060
3060
3060
F078
F078
ENDCHAR

STARTCHAR Xi
ENCODING 216
SWIDTH 720 0
DWIDTH 18 0
BBX 12 30 2 0
BITMAP
FFF0
FFF0
C030
C030
C030
C030
C030
C030
0000
0000
30C0
30C0
30C0
30C0
3FC0
3FC0
30C0
30C0
30C0
30C0
0000
0000
C030
C030
C030
C030
C030
C030
FFF0
FFF0
ENDCHAR

STARTCHAR Upsilon1
ENCODING 217
SWIDTH 720 0
DWIDTH 18 0
BBX 16 30 0 0
BITMAP
E007
E007
700E
700E
381C
381C
1C38
1C38
0C30
0C30
0E60
0E60
07E0
07E0
03C0
03C0
0180
0180
0180
0180
0180
0180
0180
0180
0180
0180
0180
0180
0FF0
0FF0
ENDCHAR

STARTCHAR propersubset
ENCODING 218
SWIDTH 720 0
DWIDTH 18 0
BBX 12 26 2 2
BITMAP
0FF0
0FF0
1FF0
1FF0
7000
7000
6000
6000
E000
E000
C000
C000
C000
C000
C000
C000
E000
E000
6000
6000
7000
7000
1FF0
1FF0
0FF0
0FF0
ENDCHAR

STARTCHAR propersuperset
ENCODING 219
SWIDTH 720 0
DWIDTH 18 0
BBX 12 26 2 2
BITMAP
FF00
FF00
FF80
FF80
00E0
00E0
0060
0060
0070
0070
0030
0030
0030
0030
0030
0030
0070
0070
0060
0060
00E0
00E0
FF80
FF80
FF00
FF00
ENDCHAR

STARTCHAR intersection
ENCODING 220
SWIDTH 720 0
DWIDTH 18 0
BBX 12 28 2 0
BITMAP
0F00
0F00
3FC0
3FC0
70E0
70E0
6060
6060
C030
C030
C030
C030
C030
C030
C030
C030
C030
C030
C030
C030
C030
C030
C030
C030
C030
C030
C030
C030
ENDCHAR

STARTCHAR union
ENCODING 221
SWIDTH 720 0
DWIDTH 18 0
BBX 12 28 2 0
BITMAP
C030
C030
C030
C030
C030
C030
C030
C030
C030
C030
C030
C030
C030
C030
C030
C030
C030
C030
C030
C030
6060
6060
70E0
70E0
3FC0
3FC0
0F00
0F00
ENDCHAR

STARTCHAR logicaland
ENCODING 222
SWIDTH 720 0
DWIDTH 18 0
BBX 14 26 1 2
BITMAP
0300
0300
0300
0300
0780
0780
0780
0780
0CC0
0CC0
0CC0
0CC0
1860
1860
3030
3030
3030
3030
6018
6018
6018
6018
C00C
C00C
C00C
C00C
ENDCHAR

STARTCHAR logicalor
ENCODING 223
SWIDTH 720 0
DWIDTH 18 0
BBX 14 26 1 2
BITMAP
C00C
C00C
C00C
C00C
6018
6018
6018
6018
3030
3030
3030
3030
1860
1860
0CC0
0CC0
0CC0
0CC0
0780
0780
0780
0780
0300
0300
0300
0300
ENDCHAR

STARTCHAR logicalnot
ENCODING 224
SWIDTH 720 0
DWIDTH 18 0
BBX 12 10 2 10
BITMAP
FFF0
FFF0
0030
0030
0030
0030
0030
0030
0030
0030
ENDCHAR

STARTCHAR alpha
ENCODING 225
SWIDTH 720 0
DWIDTH 18 0
BBX 14 24 1 0
BITMAP
0F8C
0F8C
39DC
39DC
70F8
70F8
60F0
60F0
C060
C060
C060
C060
C060
C060
C060
C060
C0E0
C0E0
E0F0
E0F0
73BC
73BC
3F1C
3F1C
ENDCHAR

STARTCHAR beta
ENCODING 226
SWIDTH 720 0
DWIDTH 18 0
BBX 13 44 2 -10
BITMAP
01E0
01E0
07F0
07F0
0630
0630
0C18
0C18
0C18
0C18
1818
1818
1830
1830
1BE0
1BE0
1BF0
1BF0
3038
3038
3018
3018
3018
3018
3018
3018
6018
6018
6C30
6C30
6E70
6E70
67E0
67E0
6000
6000
C000
C000
C000
C000
C000
C000
C000
C000
ENDCHAR

STARTCHAR chi
ENCODING 227
SWIDTH 720 0
DWIDTH 18 0
BBX 15 32 1 -8
BITMAP
3E0E
3E0E
0E18
0E18
0630
0630
0730
0730
0360
0360
03C0
03C0
03C0
03C0
0180
0180
0380
0380
07C0
07C0
06C0
06C0
0C60
0C60
1860
1860
1870
1870
3030
3030
F83C
F83C
ENDCHAR

STARTCHAR delta
ENCODING 228
SWIDTH 720 0
DWIDTH 18 0
BBX 12 34 2 0
BITMAP
03F0
03F0
07F0
07F0
0C00
0C00
0C00
0C00
0E00
0E00
0700
0700
1FC0
1FC0
38E0
38E0
6060
6060
E030
E030
C030
C030
C030
C030
C030
C030
E060
E060
6060
6060
79C0
79C0
1F80
1F80
ENDCHAR

STARTCHAR epsilon
ENCODING 229
SWIDTH 720 0
DWIDTH 18 0
BBX 13 24 2 0
BITMAP
07F8
07F8
1C00
1C00
3000
3000
7000
7000
6000
6000
FFF0
FFF0
E000
E000
E000
E000
6000
6000
7000
7000
3C00
3C00
0FE0
0FE0
ENDCHAR

STARTCHAR phi
ENCODING 230
SWIDTH 720 0
DWIDTH 18 0
BBX 14 44 1 -10
BITMAP
0060
0060
0060
0060
0060
0060
00C0
00C0
00C0
00C0
0FF0
0FF0
3998
3998
718C
718C
618C
618C
C10C
C10C
C30C
C30C
C30C
C30C
C218
C218
C618
C618
6630
6630
7670
7670
1FC0
1FC0
0C00
0C00
0C00
0C00
1800
1800
1800
1800
1800
1800
ENDCHAR

STARTCHAR gamma
ENCODING 231
SWIDTH 720 0
DWIDTH 18 0
BBX 12 32 2 -8
BITMAP
E030
E030
6030
6030
7060
7060
3060
3060
38C0
38C0
18C0
18C0
0D80
0D80
0F80
0F80
0700
0700
0700
0700
0600
0600
0600
0600
0C00
0C00
0C00
0C00
1C00
1C00
1800
1800
ENDCHAR

STARTCHAR eta
ENCODING 232
SWIDTH 720 0
DWIDTH 18 0
BBX 12 32 2 -8
BITMAP
F3E0
F3E0
1E70
1E70
1830
1830
1830
1830
3030
3030
3060
3060
3060
3060
6060
6060
60C0
60C0
60C0
60C0
C0C0
C0C0
C180
C180
0180
0180
0180
0180
0300
0300
0300
0300
ENDCHAR

STARTCHAR iota
ENCODING 233
SWIDTH 720 0
DWIDTH 18 0
BBX 8 24 5 0
BITMAP
F8
F8
18
18
30
30
30
30
30
30
60
60
60
60
60
60
C0
C0
C7
C7
CE
CE
78
78
ENDCHAR

STARTCHAR theta
ENCODING 234
SWIDTH 720 0
DWIDTH 18 0
BBX 12 34 2 0
BITMAP
07C0
07C0
0FE0
0FE0
1C70
1C70
3830
3830
3030
3030
7030
7030
6030
6030
6030
6030
FFE0
FFE0
E060
E060
C060
C060
C0E0
C0E0
C0C0
C0C0
C1C0
C1C0
E380
E380
7F00
7F00
3E00
3E00
ENDCHAR

STARTCHAR kappa
ENCODING 235
SWIDTH 720 0
DWIDTH 18 0
BBX 11 24 3 0
BITMAP
3060
3060
30C0
30C0
3180
3180
3300
3300
7600
7600
7C00
7C00
6C00
6C00
E600
E600
C600
C600
C300
C300
C380
C380
C1C0
C1C0
ENDCHAR

STARTCHAR lambda
ENCODING 236
SWIDTH 720 0
DWIDTH 18 0
BBX 12 34 1 0
BITMAP
0E00
0E00
0600
0600
0600
0600
0300
0300
0300
0300
0300
0300
0300
0300
0780
0780
0780
0780
0D80
0D80
0CC0
0CC0
18C0
18C0
18C0
18C0
3060
3060
3060
3060
6060
6060
F070
F070
ENDCHAR

STARTCHAR nu
ENCODING 238
SWIDTH 720 0
DWIDTH 18 0
BBX 12 24 2 0
BITMAP
F870
F870
1830
1830
1830
1830
1860
1860
1860
1860
18C0
18C0
18C0
18C0
1980
1980
1B00
1B00
1E00
1E00
1C00
1C00
1800
1800
ENDCHAR

STARTCHAR partialdiff
ENCODING 239
SWIDTH 720 0
DWIDTH 18 0
BBX 12 32 2 0
BITMAP
3C00
3C00
0F00
0F00
03C0
03C0
00C0
00C0
0060
0060
0060
0060
0F30
0F30
39F0
39F0
6070
6070
E030
E030
C030
C030
C070
C070
C060
C060
60E0
60E0
7FC0
7FC0
1F00
1F00
ENDCHAR

STARTCHAR pi
ENCODING 240
SWIDTH 720 0
DWIDTH 18 0
BBX 14 24 2 0
BITMAP
FFFC
FFFC
1860
1860
1860
1860
1860
1860
30C0
30C0
30C0
30C0
30C0
30C0
30C0
30C0
6180
6180
6180
6180
6180
6180
61E0
61E0
ENDCHAR

STARTCHAR psi
ENCODING 241
SWIDTH 720 0
DWIDTH 18 0
BBX 13 40 2 -8
BITMAP
0180
0180
0180
0180
0180
0180
0100
0100
6318
6318
6318
6318
6318
6318
6318
6318
C318
C318
C230
C230
C630
C630
C630
C630
C620
C620
6660
6660
76C0
76C0
1F80
1F80
0C00
0C00
0C00
0C00
0C00
0C00
0C00
0C00
ENDCHAR

STARTCHAR rho
ENCODING 242
SWIDTH 720 0
DWIDTH 18 0
BBX 13 32 1 -8
BITMAP
03E0
03E0
0FF0
0FF0
0C38
0C38
1C18
1C18
1818
1818
1818
1818
3838
3838
3030
3030
3030
3030
78E0
78E0
7FC0
7FC0
6780
6780
6000
6000
E000
E000
C000
C000
C000
C000
ENDCHAR

STARTCHAR sigma
ENCODING 243
SWIDTH 720 0
DWIDTH 18 0
BBX 14 24 2 0
BITMAP
0FFC
0FFC
38E0
38E0
7070
7070
6030
6030
C030
C030
C030
C030
C030
C030
C060
C060
E060
E060
60C0
60C0
7980
7980
1E00
1E00
ENDCHAR

STARTCHAR tau
ENCODING 244
SWIDTH 720 0
DWIDTH 18 0
BBX 13 24 2 0
BITMAP
FFF8
FFF8
0E00
0E00
0E00
0E00
0C00
0C00
1C00
1C00
1800
1800
1800
1800
3800
3800
3000
3000
3070
3070
38E0
38E0
1F80
1F80
ENDCHAR

STARTCHAR florin
ENCODING 246
SWIDTH 720 0
DWIDTH 18 0
BBX 14 40 1 -8
BITMAP
003C
003C
0060
0060
00C0
00C0
00C0
00C0
0180
0180
1FF0
1FF0
0180
0180
0300
0300
0300
0300
0300
0300
0300
0300
0600
0600
0600
0600
0600
0600
0600
0600
0C00
0C00
0C00
0C00
0C00
0C00
1800
1800
F000
F000
ENDCHAR

STARTCHAR omega
ENCODING 247
SWIDTH 720 0
DWIDTH 18 0
BBX 14 24 1 0
BITMAP
1818
1818
180C
180C
300C
300C
318C
318C
618C
618C
618C
618C
630C
630C
C30C
C30C
C318
C318
C718
C718
FDB0
FDB0
70E0
70E0
ENDCHAR

STARTCHAR xi
ENCODING 248
SWIDTH 720 0
DWIDTH 18 0
BBX 12 42 2 -8
BITMAP
1FF0
1FF0
1FF0
1FF0
0380
0380
0E00
0E00
1800
1800
1800
1800
0C00
0C00
03C0
03C0
0FC0
0FC0
3C00
3C00
7000
7000
E000
E000
C000
C000
C000
C000
E000
E000
7F40
7F40
0FF0
0FF0
0030
0030
0030
0030
0060
0060
01C0
01C0
ENDCHAR

STARTCHAR upsilon
ENCODING 249
SWIDTH 720 0
DWIDTH 18 0
BBX 12 24 2 0
BITMAP
F8F0
F8F0
3830
3830
7030
7030
6030
6030
6070
6070
E060
E060
C060
C060
C0E0
C0E0
E0C0
E0C0
E180
E180
7300
7300
3E00
3E00
ENDCHAR

STARTCHAR zeta
ENCODING 250
SWIDTH 720 0
DWIDTH 18 0
BBX 13 44 2 -10
BITMAP
1FF8
1FF8
1FF8
1FF8
0030
0030
00E0
00E0
0180
0180
0700
0700
0C00
0C00
1800
1800
3000
3000
7000
7000
6000
6000
E000
E000
C000
C000
C000
C000
F000
F000
7C00
7C00
1FF0
1FF0
0038
0038
0018
0018
0018
0018
0030
0030
01C0
01C0
ENDCHAR

STARTCHAR arrowleft
ENCODING 251
SWIDTH 720 0
DWIDTH 18 0
BBX 15 24 2 4
BITMAP
0400
0400
0C00
0C00
1800
1800
3800
3800
7000
7000
FFFE
FFFE
FFFE
FFFE
7000
7000
3800
3800
1800
1800
0C00
0C00
0400
0400
ENDCHAR

STARTCHAR arrowup
ENCODING 252
SWIDTH 720 0
DWIDTH 18 0
BBX 10 36 3 -4
BITMAP
0C00
0C00
1E00
1E00
3F00
3F00
7F80
7F80
EDC0
EDC0
CCC0
CCC0
0C00
0C00
0C00
0C00
0C00
0C00
0C00
0C00
0C00
0C00
0C00
0C00
0C00
0C00
0C00
0C00
0C00
0C00
0C00
0C00
0C00
0C00
0C00
0C00
ENDCHAR

STARTCHAR arrowright
ENCODING 253
SWIDTH 720 0
DWIDTH 18 0
BBX 15 24 0 4
BITMAP
0040
0040
0060
0060
0030
0030
0038
0038
001C
001C
FFFE
FFFE
FFFE
FFFE
001C
001C
0038
0038
0030
0030
0060
0060
0040
0040
ENDCHAR

STARTCHAR arrowdown
ENCODING 254
SWIDTH 720 0
DWIDTH 18 0
BBX 10 34 3 -2
BITMAP
0C00
0C00
0C00
0C00
0C00
0C00
0C00
0C00
0C00
0C00
0C00
0C00
0C00
0C00
0C00
0C00
0C00
0C00
0C00
0C00
0C00
0C00
CCC0
CCC0
EDC0
EDC0
7F80
7F80
3F00
3F00
1E00
1E00
0C00
0C00
ENDCHAR
ENDFONT
